<svg xmlns="http://www.w3.org/2000/svg" viewBox="0 0 400 225" width="400" height="225" role="img" aria-label="CYGNSS — Earth limb in the left corner; a tilted train of eight microsats receiving GPS reflected at the specular point (placeholder)">
  <defs>
    <g id="csat">
      <rect x="-54" y="-6" width="39" height="12" rx="1" fill="#138A8F"/>
      <line x1="-41" y1="-6" x2="-41" y2="6" stroke="#0B5E62" stroke-width="0.7" opacity="0.7"/>
      <line x1="-28" y1="-6" x2="-28" y2="6" stroke="#0B5E62" stroke-width="0.7" opacity="0.7"/>
      <rect x="15" y="-6" width="39" height="12" rx="1" fill="#138A8F"/>
      <line x1="28" y1="-6" x2="28" y2="6" stroke="#0B5E62" stroke-width="0.7" opacity="0.7"/>
      <line x1="41" y1="-6" x2="41" y2="6" stroke="#0B5E62" stroke-width="0.7" opacity="0.7"/>
      <polygon points="-11,-9 11,-9 15,0 8,10 -8,10 -15,0" fill="#05161E" stroke="#138A8F" stroke-width="1"/>
      <rect x="-8" y="-7" width="16" height="4" rx="1" fill="#138A8F" opacity="0.75"/>
    </g>
  </defs>
  <rect width="400" height="225" fill="#E1F0F0"/>
  <path d="M330 214 Q165 148 0 140 L0 225 L400 225 Z" fill="#138A8F" opacity="0.12"/>
  <path d="M330 214 Q165 148 0 140" fill="none" stroke="#05161E" stroke-width="2" opacity="0.4"/>
  <line x1="272" y1="110" x2="382" y2="52" stroke="#138A8F" stroke-width="1.2" stroke-dasharray="3 5" opacity="0.35"/>
  <g transform="rotate(14.4 196 170)" fill="none" stroke="#138A8F" stroke-linecap="round">
    <ellipse cx="196" cy="170" rx="30" ry="8" stroke-width="1.3" opacity="0.34"/>
    <ellipse cx="196" cy="170" rx="20" ry="5.4" stroke-width="1.3" opacity="0.5"/>
    <ellipse cx="196" cy="170" rx="11" ry="3" stroke-width="1.3" opacity="0.66"/>
  </g>
  <circle cx="54" cy="56" r="4.2" fill="#138A8F"/>
  <circle cx="54" cy="56" r="8.5" fill="none" stroke="#138A8F" stroke-width="1.2" opacity="0.45"/>
  <g stroke="#138A8F" stroke-width="1.2" opacity="0.6" stroke-linecap="round"><line x1="54" y1="44" x2="54" y2="40"/><line x1="43" y1="50" x2="40" y2="47"/><line x1="65" y1="50" x2="68" y2="47"/></g>
  <line x1="57" y1="59" x2="193" y2="168" stroke="#138A8F" stroke-width="1.5" stroke-dasharray="5 5" opacity="0.5"/>
  <line x1="200" y1="168" x2="270" y2="112" stroke="#138A8F" stroke-width="2" stroke-dasharray="5 5" opacity="0.85"/>
  <circle cx="196" cy="170" r="3.6" fill="#FCEB9D" stroke="#05161E" stroke-width="1.2"/>
  <use href="#csat" transform="translate(382,52) rotate(-21.5) scale(0.25)"/>
  <use href="#csat" transform="translate(366.3,60.3) rotate(-21.5) scale(0.30)"/>
  <use href="#csat" transform="translate(350.6,68.6) rotate(-21.5) scale(0.36)"/>
  <use href="#csat" transform="translate(334.8,76.9) rotate(-21.5) scale(0.43)"/>
  <use href="#csat" transform="translate(319.1,85.1) rotate(-21.5) scale(0.51)"/>
  <use href="#csat" transform="translate(303.4,93.4) rotate(-21.5) scale(0.62)"/>
  <use href="#csat" transform="translate(287.7,101.7) rotate(-21.5) scale(0.75)"/>
  <use href="#csat" transform="translate(272,110) rotate(-21.5) scale(0.9)"/>
</svg>
