<svg xmlns="http://www.w3.org/2000/svg" viewBox="0 0 400 225" width="400" height="225" role="img" aria-label="NISAR — drum mesh reflector on a boom, bus with solar panels, side-looking swath between incidence angles (placeholder)">
  <rect width="400" height="225" fill="#F7EAE2"/>
  <path d="M0 198 Q200 188 400 198 L400 225 L0 225 Z" fill="#C75B2B" opacity="0.10"/>
  <path d="M0 198 Q200 188 400 198" fill="none" stroke="#05161E" stroke-width="2" opacity="0.4"/>
  <line x1="156" y1="106" x2="156" y2="193" stroke="#05161E" stroke-width="1" stroke-dasharray="2 4" opacity="0.5"/>
  <polygon points="158,106 236,193 318,195" fill="#C75B2B" opacity="0.13"/>
  <line x1="158" y1="106" x2="236" y2="193" stroke="#C75B2B" stroke-width="1.3" opacity="0.6"/>
  <line x1="158" y1="106" x2="318" y2="195" stroke="#C75B2B" stroke-width="1.3" opacity="0.6"/>
  <path d="M236 193 Q277 190 318 195" fill="none" stroke="#C75B2B" stroke-width="5" stroke-linecap="round" opacity="0.5"/>
  <circle cx="236" cy="193" r="3" fill="#C75B2B"/>
  <circle cx="318" cy="195" r="3" fill="#C75B2B"/>
  <line x1="152" y1="62" x2="157" y2="96" stroke="#05161E" stroke-width="1.8"/>
  <line x1="161" y1="61" x2="165" y2="96" stroke="#05161E" stroke-width="1.8"/>
  <line x1="154" y1="72" x2="163" y2="71" stroke="#05161E" stroke-width="1" opacity="0.8"/>
  <line x1="155" y1="82" x2="164" y2="81" stroke="#05161E" stroke-width="1" opacity="0.8"/>
  <line x1="156" y1="92" x2="165" y2="91" stroke="#05161E" stroke-width="1" opacity="0.8"/>
  <rect x="110" y="99" width="30" height="10" rx="1.5" fill="#C75B2B"/><line x1="120" y1="99" x2="120" y2="109" stroke="#05161E" stroke-width="0.7" opacity="0.5"/><line x1="130" y1="99" x2="130" y2="109" stroke="#05161E" stroke-width="0.7" opacity="0.5"/>
  <rect x="172" y="99" width="30" height="10" rx="1.5" fill="#C75B2B"/><line x1="182" y1="99" x2="182" y2="109" stroke="#05161E" stroke-width="0.7" opacity="0.5"/><line x1="192" y1="99" x2="192" y2="109" stroke="#05161E" stroke-width="0.7" opacity="0.5"/>
  <rect x="146" y="95" width="22" height="16" rx="2" fill="#05161E"/>
  <g transform="rotate(-15 152 54)">
    <ellipse cx="152" cy="49" rx="46" ry="14.5" fill="none" stroke="#C75B2B" stroke-width="1.3" opacity="0.55"/>
    <line x1="106" y1="49" x2="106" y2="54" stroke="#C75B2B" stroke-width="1.3" opacity="0.55"/>
    <line x1="198" y1="49" x2="198" y2="54" stroke="#C75B2B" stroke-width="1.3" opacity="0.55"/>
    <ellipse cx="152" cy="54" rx="46" ry="14.5" fill="#C75B2B" opacity="0.16" stroke="#C75B2B" stroke-width="2.4"/>
    <g stroke="#C75B2B" stroke-width="0.6" opacity="0.45">
      <line x1="120" y1="46" x2="120" y2="62"/><line x1="136" y1="43" x2="136" y2="65"/><line x1="152" y1="42" x2="152" y2="66"/><line x1="168" y1="43" x2="168" y2="65"/><line x1="184" y1="46" x2="184" y2="62"/>
      <line x1="112" y1="50" x2="192" y2="50"/><line x1="108" y1="54" x2="196" y2="54"/><line x1="112" y1="58" x2="192" y2="58"/>
    </g>
  </g>
  <circle cx="156" cy="63" r="2.4" fill="#05161E"/>
</svg>
