<svg xmlns="http://www.w3.org/2000/svg" viewBox="0 0 400 225" width="400" height="225" role="img" aria-label="New mission concept — a playful NEW! badge with sparkles and a tiny satellite (placeholder)">
  <rect width="400" height="225" fill="#ECEEF0"/>
  <ellipse cx="200" cy="115" rx="150" ry="58" fill="none" stroke="#5B6670" stroke-width="1.4" stroke-dasharray="5 6" opacity="0.35"/>
  <g>
    <polygon points="252,112 237.1,124.1 242.1,142.6 222.9,143.6 216.1,161.4 200,151 183.9,161.4 177.1,143.6 157.9,142.6 162.9,124.1 148,112 162.9,99.9 157.9,81.4 177.1,80.4 183.9,62.6 200,73 216.1,62.6 222.9,80.4 242.1,81.4 237.1,99.9" fill="#FCEB9D" stroke="#5B6670" stroke-width="2" stroke-linejoin="round"/>
    <text x="200" y="121" text-anchor="middle" font-family="'Open Sauce One',system-ui,sans-serif" font-size="27" font-weight="700" fill="#3A424A">NEW</text>
  </g>
  <g fill="#5B6670">
    <polygon points="92,54 95,63 104,66 95,69 92,78 89,69 80,66 89,63"/>
    <polygon points="312,150 315,159 324,162 315,165 312,174 309,165 300,162 309,159"/>
  </g>
  <g fill="#C99A2E">
    <polygon points="316,62 318.5,69 326,71.5 318.5,74 316,81 313.5,74 306,71.5 313.5,69"/>
    <polygon points="86,150 88.5,157 96,159.5 88.5,162 86,169 83.5,162 76,159.5 83.5,157"/>
  </g>
  <g transform="translate(52,118) rotate(-18)">
    <rect x="-6" y="-1" width="12" height="9" rx="1.5" fill="#05161E"/>
    <rect x="-19" y="1" width="11" height="5" rx="1" fill="#5B6670"/>
    <rect x="8" y="1" width="11" height="5" rx="1" fill="#5B6670"/>
    <ellipse cx="0" cy="-6" rx="6" ry="2.2" fill="none" stroke="#5B6670" stroke-width="1.4"/>
    <line x1="0" y1="-4" x2="0" y2="-1" stroke="#05161E" stroke-width="1.2"/>
  </g>
  <circle cx="352" cy="118" r="2.6" fill="#FCEB9D" stroke="#05161E" stroke-width="1"/>
</svg>
