<svg xmlns="http://www.w3.org/2000/svg" viewBox="0 0 400 225" width="400" height="225" role="img" aria-label="SMAP — reflector satellite upper-left; conical-scan coil footprint receding along the curved Earth surface (placeholder)">
  <rect width="400" height="225" fill="#E4EFF7"/>
  <path d="M90 220 Q245 150 400 145 L400 225 L0 225 Z" fill="#1C6FB0" opacity="0.12"/>
  <path d="M90 220 Q245 150 400 145" fill="none" stroke="#05161E" stroke-width="2" opacity="0.4"/>
  <polygon points="104,62 150,189 191,187" fill="#ffffff" opacity="0.5"/>
  <line x1="104" y1="62" x2="150" y2="189" stroke="#1C6FB0" stroke-width="1.2" opacity="0.5"/>
  <line x1="104" y1="62" x2="191" y2="187" stroke="#1C6FB0" stroke-width="1.2" opacity="0.5"/>
  <g fill="none" stroke="#1C6FB0" stroke-width="1.3" opacity="0.55">
    <ellipse cx="170" cy="188.2" rx="24" ry="7" transform="rotate(-18.9 170 188.2)"/>
    <ellipse cx="188" cy="182.2" rx="23.1" ry="6.7" transform="rotate(-17.7 188 182.2)"/>
    <ellipse cx="206" cy="176.7" rx="22.2" ry="6.4" transform="rotate(-16.4 206 176.7)"/>
    <ellipse cx="224" cy="171.6" rx="21.2" ry="6.1" transform="rotate(-15.1 224 171.6)"/>
    <ellipse cx="242" cy="167.0" rx="20.3" ry="5.8" transform="rotate(-13.8 242 167.0)"/>
    <ellipse cx="260" cy="162.8" rx="19.4" ry="5.6" transform="rotate(-12.5 260 162.8)"/>
    <ellipse cx="278" cy="159.0" rx="18.5" ry="5.3" transform="rotate(-11.2 278 159.0)"/>
    <ellipse cx="296" cy="155.7" rx="17.5" ry="5" transform="rotate(-9.8 296 155.7)"/>
    <ellipse cx="313" cy="152.9" rx="16.6" ry="4.7" transform="rotate(-8.5 313 152.9)"/>
    <ellipse cx="331" cy="150.5" rx="15.7" ry="4.4" transform="rotate(-7.2 331 150.5)"/>
    <ellipse cx="349" cy="148.4" rx="14.8" ry="4.1" transform="rotate(-5.8 349 148.4)"/>
    <ellipse cx="367" cy="146.8" rx="13.8" ry="3.8" transform="rotate(-4.4 367 146.8)"/>
    <ellipse cx="385" cy="145.7" rx="13" ry="3.5" transform="rotate(-3.0 385 145.7)"/>
  </g>
  <circle cx="170" cy="188.2" r="3.4" fill="#FCEB9D" stroke="#05161E" stroke-width="1.2"/>
  <rect x="38" y="95" width="32" height="11" rx="1.5" fill="#1C6FB0"/><line x1="48" y1="95" x2="48" y2="106" stroke="#05161E" stroke-width="0.7" opacity="0.5"/><line x1="59" y1="95" x2="59" y2="106" stroke="#05161E" stroke-width="0.7" opacity="0.5"/>
  <rect x="94" y="95" width="32" height="11" rx="1.5" fill="#1C6FB0"/><line x1="104" y1="95" x2="104" y2="106" stroke="#05161E" stroke-width="0.7" opacity="0.5"/><line x1="115" y1="95" x2="115" y2="106" stroke="#05161E" stroke-width="0.7" opacity="0.5"/>
  <rect x="72" y="92" width="20" height="15" rx="2" fill="#05161E"/>
  <rect x="75" y="95" width="14" height="3.4" rx="1" fill="#C9A227"/>
  <line x1="104" y1="60" x2="87" y2="92" stroke="#05161E" stroke-width="1.7"/>
  <line x1="109" y1="59" x2="92" y2="91" stroke="#05161E" stroke-width="1.7"/>
  <ellipse cx="106" cy="48" rx="37" ry="13.5" fill="#1C6FB0" opacity="0.13" stroke="#1C6FB0" stroke-width="2.2"/>
  <g stroke="#1C6FB0" stroke-width="0.6" opacity="0.5">
    <line x1="85" y1="42" x2="85" y2="54"/><line x1="95" y1="39" x2="95" y2="57"/><line x1="106" y1="37" x2="106" y2="59"/><line x1="117" y1="39" x2="117" y2="57"/><line x1="127" y1="42" x2="127" y2="54"/>
    <line x1="78" y1="44" x2="134" y2="44"/><line x1="72" y1="48" x2="140" y2="48"/><line x1="78" y1="52" x2="134" y2="52"/>
  </g>
</svg>
