<svg xmlns="http://www.w3.org/2000/svg" viewBox="0 0 400 225" width="400" height="225" role="img" aria-label="Snow water equivalent">
  <rect width="400" height="225" fill="#E5F2EC"/>
  <path d="M0 150 Q120 120 240 145 Q320 162 400 140 L400 225 L0 225 Z" fill="#FFFFFF"/>
  <g stroke="#9CC9DA" stroke-width="2.4" fill="none" stroke-linecap="round">
    <path d="M30 172 Q140 150 250 170 Q330 184 380 168"/>
    <path d="M30 196 Q140 178 250 194 Q330 206 380 192"/>
  </g>
  <g stroke="#0D8758" stroke-width="3" stroke-linecap="round">
    <line x1="120" y1="40" x2="120" y2="78"/><line x1="101" y1="59" x2="139" y2="59"/>
    <line x1="108" y1="46" x2="132" y2="72"/><line x1="132" y1="46" x2="108" y2="72"/>
  </g>
  <g stroke="#0F7EB1" stroke-width="2.6" stroke-linecap="round">
    <line x1="280" y1="58" x2="280" y2="88"/><line x1="265" y1="73" x2="295" y2="73"/>
    <line x1="270" y1="63" x2="290" y2="83"/><line x1="290" y1="63" x2="270" y2="83"/>
  </g>
</svg>
