<svg xmlns="http://www.w3.org/2000/svg" viewBox="0 0 400 225" width="400" height="225" role="img" aria-label="Soil moisture">
  <rect width="400" height="225" fill="#E3EFF7"/>
  <path d="M0 150 Q100 138 200 150 T400 150 L400 225 L0 225 Z" fill="#CDB892"/>
  <g fill="none" stroke="#0F7EB1" stroke-width="3.2" stroke-linecap="round">
    <path d="M165 78 A40 40 0 0 1 235 78"/>
    <path d="M150 78 A55 55 0 0 1 250 78"/>
    <path d="M135 78 A70 70 0 0 1 265 78"/>
  </g>
  <circle cx="200" cy="78" r="5.5" fill="#FCEB9D" stroke="#05161E" stroke-width="1.6"/>
  <g fill="#0F7EB1">
    <path d="M120 168 c-9 11 -9 20 0 20 c9 0 9 -9 0 -20 z"/>
    <path d="M200 178 c-8 10 -8 18 0 18 c8 0 8 -8 0 -18 z"/>
    <path d="M280 168 c-9 11 -9 20 0 20 c9 0 9 -9 0 -20 z"/>
  </g>
</svg>
